Coordinates
version=1
nRows=17
nColumns=40
inDegrees=yes

Units are S.I. units (second, meters, Newtons, ...)
Angles are in degrees.

endheader
time	pelvis_tilt	pelvis_list	pelvis_rotation	pelvis_tx	pelvis_ty	pelvis_tz	hip_flexion_r	hip_adduction_r	hip_rotation_r	knee_angle_r	knee_angle_r_beta	ankle_angle_r	subtalar_angle_r	mtp_angle_r	hip_flexion_l	hip_adduction_l	hip_rotation_l	knee_angle_l	knee_angle_l_beta	ankle_angle_l	subtalar_angle_l	mtp_angle_l	lumbar_extension	lumbar_bending	lumbar_rotation	arm_flex_r	arm_add_r	arm_rot_r	elbow_flex_r	pro_sup_r	wrist_flex_r	wrist_dev_r	arm_flex_l	arm_add_l	arm_rot_l	elbow_flex_l	pro_sup_l	wrist_flex_l	wrist_dev_l
     51.96000000	     -6.25670539	     -4.98304671	     -1.25086632	      1.07428391	      0.93208474	      0.43464380	     38.24009610	     -6.27915573	     -7.46448521	     65.99666855	     65.99666855	      2.94742133	    -16.83984938	      3.21306868	     15.36413533	     -5.35331745	    -10.31829633	     20.37161487	     20.37161487	     13.87316697	     -5.35863318	     -2.63236297	    -12.66218658	      4.64489694	      0.93595224	     -0.13606013	    -14.08407120	     -4.31453943	     28.71061308	     46.80139148	      0.00000000	      0.00000000	     20.37047341	    -17.95053449	      0.58988120	     55.14249152	     46.24009541	      0.00000000	      0.00000000
     51.97171429	     -6.29599667	     -4.81519008	     -1.29245334	      1.07377313	      0.93211795	      0.43455845	     38.81220624	     -6.37141895	     -7.56929683	     64.24070867	     64.24070867	      2.82709847	    -16.49262310	      3.25761431	     14.63277295	     -5.13115705	    -10.53414384	     19.81403538	     19.81403538	     14.08663115	     -5.03423363	     -2.71309239	    -12.70803876	      4.55276214	      1.19855988	     -2.12249778	    -14.24094909	     -4.36951127	     27.38549172	     46.83604654	      0.00000000	      0.00000000	     21.53855534	    -18.11768670	      0.12179623	     56.75078227	     46.32412554	      0.00000000	      0.00000000
     51.98342857	     -6.36589002	     -4.65016118	     -1.32849258	      1.07337296	      0.93210179	      0.43460155	     39.25260037	     -6.43037419	     -7.72249586	     62.18709378	     62.18709378	      2.72565382	    -16.15414652	      3.28586870	     13.88948354	     -4.92155388	    -10.78850941	     19.18312173	     19.18312173	     14.29122852	     -4.57208489	     -2.89167907	    -12.69069174	      4.44894362	      1.35057652	     -3.98152962	    -14.30147113	     -4.44745199	     26.22201291	     46.86878728	      0.00000000	      0.00000000	     22.46242045	    -18.34109306	     -0.33490074	     58.60756974	     46.40590830	      0.00000000	      0.00000000
     51.99514286	     -6.47566980	     -4.46269615	     -1.38239566	      1.07300723	      0.93189217	      0.43481094	     39.60045813	     -6.47995407	     -7.91093529	     59.86661574	     59.86661574	      2.48149750	    -15.87848244	      2.88457108	     13.20361680	     -4.71725344	    -11.11996658	     18.58323702	     18.58323702	     14.38614610	     -4.05798877	     -3.50674897	    -12.64851950	      4.27736251	      1.11717454	     -5.51535870	    -14.26399409	     -4.83394339	     25.14389923	     46.91676835	      0.00000000	      0.00000000	     22.57268414	    -18.95942552	     -1.21018273	     61.85670708	     46.55497643	      0.00000000	      0.00000000
     52.00685714	     -6.54419100	     -4.22645641	     -1.44107070	      1.07281682	      0.93180603	      0.43507964	     39.74253339	     -6.49997476	     -8.02668852	     57.27024176	     57.27024176	      2.40264810	    -15.44938130	      2.88648952	     12.36945990	     -4.41440636	    -11.37135722	     17.80248721	     17.80248721	     14.49850903	     -3.64276423	     -3.69249750	    -12.62334271	      4.07886727	      1.13620742	     -7.26803386	    -14.29964981	     -4.96008506	     24.36446436	     46.93768528	      0.00000000	      0.00000000	     23.27395112	    -19.20515770	     -1.80812495	     63.73931465	     46.64837653	      0.00000000	      0.00000000
     52.01857143	     -6.67191932	     -4.03282034	     -1.50054550	      1.07269033	      0.93158014	      0.43548871	     39.77629326	     -6.46153708	     -8.25654276	     54.38665281	     54.38665281	      2.33780884	    -14.92084843	      2.95916533	     11.58888217	     -4.16552733	    -11.60216720	     17.01145132	     17.01145132	     14.63820443	     -3.18909211	     -3.89946956	    -12.50521980	      3.92974744	      1.14157697	     -8.99770476	    -14.36398536	     -5.09336714	     23.83505492	     46.95040444	      0.00000000	      0.00000000	     23.81242546	    -19.42774690	     -2.33054674	     65.56146009	     46.72879596	      0.00000000	      0.00000000
     52.03028571	     -6.73640412	     -3.72858099	     -1.60090650	      1.07269078	      0.93124981	      0.43606255	     39.62609981	     -6.46149199	     -8.40388116	     51.30375953	     51.30375953	      2.25940438	    -14.27301610	      2.79689666	     10.68954878	     -3.80925285	    -11.97528662	     16.15008013	     16.15008013	     14.68827845	     -2.66030637	     -4.31057258	    -12.49579564	      3.60618668	      1.17573246	    -10.81527308	    -14.37274564	     -5.35839463	     23.68824018	     46.95350733	      0.00000000	      0.00000000	     24.12590894	    -19.72802582	     -3.10560149	     68.23557808	     46.84396493	      0.00000000	      0.00000000
     52.04200000	     -6.89351399	     -3.47611450	     -1.64411051	      1.07276298	      0.93066086	      0.43669409	     39.36221544	     -6.39204407	     -8.66065149	     47.89416631	     47.89416631	      1.80730916	    -13.64687268	      1.88338915	      9.93790066	     -3.50267237	    -12.19276563	     15.33700750	     15.33700750	     14.50910008	     -2.31044424	     -5.34919781	    -12.38166378	      3.37807407	      0.49711633	    -12.40275376	    -14.46672102	     -6.01494157	     24.59944451	     46.92850011	      0.00000000	      0.00000000	     23.40433426	    -20.41490785	     -4.66987103	     71.96545533	     47.05299677	      0.00000000	      0.00000000
     52.05371429	     -7.09106806	     -3.23318005	     -1.66856695	      1.07288570	      0.92993552	      0.43747292	     39.00862227	     -6.26376947	     -8.93846429	     44.33774225	     44.33774225	      1.74602061	    -12.69075138	      2.22657552	      9.27605327	     -3.21665438	    -12.34746979	     14.64971920	     14.64971920	     14.69837564	     -1.90810677	     -5.46976559	    -12.10640449	      3.17091974	      0.46409856	    -13.90654830	    -14.49451101	     -6.07401586	     24.20011850	     46.93227360	      0.00000000	      0.00000000	     23.94670189	    -20.64075247	     -5.02854912	     73.02893348	     47.10526605	      0.00000000	      0.00000000
     52.06542857	     -7.06877932	     -2.79857836	     -1.74624124	      1.07336418	      0.92926797	      0.43835504	     38.31689173	     -6.30196441	     -9.18827840	     40.70642693	     40.70642693	      1.58959352	    -11.32379950	      2.05950067	      8.18958994	     -2.71407041	    -12.77443824	     13.64414388	     13.64414388	     14.70621381	     -1.17903971	     -6.02120870	    -12.17586871	      2.68370046	      0.49192726	    -15.71104250	    -14.47979619	     -6.47381679	     24.88842068	     46.90042461	      0.00000000	      0.00000000	     23.89054683	    -20.75713766	     -5.90388492	     76.06546415	     47.23998540	      0.00000000	      0.00000000
     52.07714286	     -7.08074316	     -2.48279844	     -1.75257865	      1.07392085	      0.92839211	      0.43937987	     37.46247475	     -6.19369392	     -9.57729396	     36.90954595	     36.90954595	      1.43555177	     -9.86229100	      2.28386266	      7.28457992	     -2.36317309	    -13.01789428	     12.91784828	     12.91784828	     14.82472270	     -0.63799969	     -6.46882519	    -12.13836282	      2.35607677	      0.34094954	    -17.24235646	    -14.50900577	     -6.78626824	     25.42776846	     46.87236808	      0.00000000	      0.00000000	     23.87276613	    -20.98155315	     -6.61026452	     78.19539259	     47.34448938	      0.00000000	      0.00000000
     52.08885714	     -7.11637037	     -2.11293815	     -1.73166736	      1.07459606	      0.92724291	      0.44050912	     36.56628253	     -6.11867781	     -9.99172095	     33.18744900	     33.18744900	      1.26528586	     -8.21232012	      2.76056488	      6.44022278	     -1.97233226	    -13.25072441	     12.26770865	     12.26770865	     14.97747351	     -0.05912386	     -6.96109897	    -12.05122448	      1.96882116	      0.13279214	    -18.71004035	    -14.50400765	     -7.13456909	     26.21313150	     46.83360646	      0.00000000	      0.00000000	     23.69866915	    -21.21757861	     -7.33673949	     80.41137630	     47.45438447	      0.00000000	      0.00000000
     52.10057143	     -7.17965395	     -1.80578296	     -1.66107772	      1.07533690	      0.92589578	      0.44181749	     35.60265637	     -5.92091976	    -10.37535894	     29.52912966	     29.52912966	      0.98142537	     -6.77185221	      3.55022598	      5.76540744	     -1.68260661	    -13.31619401	     11.89834430	     11.89834430	     15.28168952	      0.28642218	     -7.21666197	    -11.85472944	      1.66831632	      0.03212711	    -19.85744656	    -14.44953035	     -7.24537077	     26.25285853	     46.82347108	      0.00000000	      0.00000000	     23.86349310	    -21.38284647	     -7.62999623	     81.48697766	     47.50144264	      0.00000000	      0.00000000
     52.11228571	     -7.05671579	     -1.43277601	     -1.61044641	      1.07643468	      0.92458521	      0.44323293	     34.45340782	     -5.84338942	    -10.89433922	     26.26221043	     26.26221043	      0.93557864	     -4.81871109	      4.42785110	      4.78205663	     -1.32313840	    -13.52784547	     11.37516488	     11.37516488	     15.57385220	      0.95114527	     -7.55598917	    -11.91326610	      1.27456038	      0.00538634	    -21.06836893	    -14.35751015	     -7.48647961	     26.82899619	     46.79440837	      0.00000000	      0.00000000	     23.75079153	    -21.45758108	     -8.08279583	     83.42939139	     47.57872886	      0.00000000	      0.00000000
     52.12400000	     -7.07264129	     -1.11065424	     -1.50871223	      1.07746418	      0.92296237	      0.44479321	     33.49641091	     -5.68894979	    -11.32709734	     23.36561098	     23.36561098	      0.67413411	     -3.34070194	      5.36333828	      4.08213265	     -1.05279066	    -13.60149624	     11.09130227	     11.09130227	     15.94647648	      1.36262714	     -7.82950052	    -11.78552509	      0.92282840	     -0.10854255	    -22.00373030	    -14.25068983	     -7.64021046	     27.20588283	     46.77306315	      0.00000000	      0.00000000	     23.63500158	    -21.53422278	     -8.39048544	     84.74016205	     47.63000455	      0.00000000	      0.00000000
     52.13571429	     -7.02443796	     -0.73187851	     -1.43985763	      1.07868961	      0.92130662	      0.44648269	     32.67994520	     -5.68070107	    -11.82891803	     21.26967656	     21.26967656	      0.90523410	     -1.61738108	      6.84211389	      3.32237257	     -0.76013884	    -13.87742665	     10.87359956	     10.87359956	     16.37809940	      2.09235838	     -8.09878916	    -11.76983606	      0.51385601	     -0.54824217	    -22.94899634	    -14.23880912	     -8.00818950	     28.90430633	     46.68883158	      0.00000000	      0.00000000	     22.74308496	    -21.80908521	     -9.39953018	     87.34227614	     47.77195494	      0.00000000	      0.00000000
     52.14742857	     -7.00808030	     -0.51711204	     -1.34340678	      1.07988178	      0.91971414	      0.44840229	     31.90117398	     -5.46024103	    -12.06646080	     19.51098528	     19.51098528	      0.69098905	     -0.74287470	      7.37478327	      2.67756122	     -0.65063086	    -13.81352477	     10.79725620	     10.79725620	     16.80934759	      2.29259238	     -8.20125465	    -11.64227776	      0.29616311	     -0.49122908	    -23.42781395	    -14.08919101	     -7.96429513	     28.92706331	     46.67351795	      0.00000000	      0.00000000	     22.72490163	    -21.69313124	     -9.52741139	     88.01600595	     47.80083300	      0.00000000	      0.00000000
